<svg width="16" height="16" viewBox="0 0 16 16" fill="none" xmlns="http://www.w3.org/2000/svg">
<path d="M8.61539 7.38462H15.3846C15.7245 7.38462 16 7.66013 16 8C16 8.33987 15.7245 8.61539 15.3846 8.61539H8.61539V15.3846C8.61539 15.7245 8.33987 16 8 16C7.66013 16 7.38462 15.7245 7.38462 15.3846V8.61539H0.615385C0.275517 8.61539 0 8.33987 0 8C0 7.66013 0.275517 7.38462 0.615385 7.38462H7.38462V0.615385C7.38462 0.275517 7.66013 0 8 0C8.33987 0 8.61539 0.275517 8.61539 0.615385V7.38462Z" fill="black"/>
</svg>
